<?xml version="1.0" encoding="utf-8"?>
<svg version="1.1" xmlns:xlink="http://www.w3.org/1999/xlink" width="57px" height="77px" xmlns="http://www.w3.org/2000/svg">
  <g transform="matrix(1 0 0 1 -434 -250 )">
    <path d="M 56.9947222222222 58.0110616438356  C 57 47.8217465753425  54.3663888888889 38.2442123287671  49.7483333333333 29.9218835616438  C 49.4052777777778 29.3048287671233  49.0569444444444 28.6983219178082  48.6927777777778 28.0970890410959  C 38.7019444444445 11.5420890410959  20.6677777777778 0.382363013698634  0 0.0131849315068529  L 0 13.2139383561644  C 15.7858333333333 13.5778424657534  29.5555555555556 22.0794863013699  37.2611111111111 34.6948287671233  C 37.6252777777778 35.2960616438356  37.9788888888889 35.9025684931507  38.3166666666667 36.5196232876712  C 41.8158333333333 42.9011301369863  43.8055555555556 50.2266780821918  43.8055555555556 58.0163356164384  C 43.8055555555556 63.0318835616438  42.9663888888889 67.8522945205479  41.4463888888889 72.3509931506849  L 53.8597222222222 76.8655136986301  C 55.8916666666667 70.9533904109589  56.9947222222222 64.6140753424658  56.9947222222222 58.0110616438356  Z " fill-rule="nonzero" fill="#189fff" stroke="none" transform="matrix(1 0 0 1 434 250 )" />
  </g>
</svg>