<?xml version="1.0" encoding="utf-8"?>
<svg version="1.1" xmlns:xlink="http://www.w3.org/1999/xlink" width="53px" height="42px" xmlns="http://www.w3.org/2000/svg">
  <g transform="matrix(1 0 0 1 -434 -324 )">
    <path d="M 52.8425742574258 4.990125  L 40.4951485148515 0.496124999999996  C 39.8024752475247 2.27062499999999  39.0048514851485 3.99262499999999  38.0970297029703 5.65162499999999  C 37.7611881188119 6.26587499999999  37.409603960396 6.874875  37.0475247524752 7.468125  C 33.3427722772277 13.542375  28.2264356435644 18.655875  22.160297029703 22.362375  C 21.5620792079208 22.724625  20.9586138613861 23.076375  20.3446534653465 23.412375  C 14.2837623762376 26.735625  7.36227722772277 28.672875  0 28.846125  L 0 41.986875  C 9.75514851485147 41.813625  18.9120792079208 39.220125  26.9093069306931 34.783875  C 27.5232673267327 34.442625  28.1267326732673 34.096125  28.7249504950495 33.733875  C 36.7851485148515 28.872375  43.559702970297 22.094625  48.4189108910891 14.030625  C 48.7809900990099 13.432125  49.1273267326733 12.823125  49.4684158415842 12.214125  C 50.7540594059406 9.898875  51.8822772277228 7.483875  52.8425742574258 4.990125  Z " fill-rule="nonzero" fill="#5ad8a6" stroke="none" transform="matrix(1 0 0 1 434 324 )" />
  </g>
</svg>