<?xml version="1.0" encoding="utf-8"?>
<svg version="1.1" xmlns:xlink="http://www.w3.org/1999/xlink" width="19px" height="57px" xmlns="http://www.w3.org/2000/svg">
  <g transform="matrix(1 0 0 1 -375 -280 )">
    <path d="M 13.1944444444444 28.5026388888889  C 13.1944444444444 23.4781944444444  14.0336111111111 18.6595833333333  15.5536111111111 14.1523611111111  C 15.7805555555556 13.4820833333333  16.0180555555556 12.8223611111111  16.2766666666667 12.1679166666667  C 16.9733333333333 10.3840277777778  17.7755555555556 8.65291666666667  18.6886111111111 6.9851388888889  L 7.25694444444444 0.387916666666674  C 5.96388888888889 2.71541666666667  4.82916666666667 5.14319444444445  3.86333333333333 7.6501388888889  C 3.61 8.30458333333334  3.36722222222222 8.96430555555556  3.14027777777778 9.63458333333335  C 1.10305555555556 15.5509722222222  0 21.8948611111111  0 28.4973611111111  C 0 38.6993055555556  2.63361111111111 48.2784722222222  7.25166666666667 56.6120833333333  L 18.6833333333333 50.0148611111111  C 15.1841666666667 43.62875  13.1944444444444 36.2979166666667  13.1944444444444 28.5026388888889  Z " fill-rule="nonzero" fill="#ffdf25" stroke="none" transform="matrix(1 0 0 1 375 280 )" />
  </g>
</svg>