<?xml version="1.0" encoding="utf-8"?>
<svg version="1.1" xmlns:xlink="http://www.w3.org/1999/xlink" width="45px" height="42px" xmlns="http://www.w3.org/2000/svg">
  <g transform="matrix(1 0 0 1 -58 -42 )">
    <path d="M 60 63  A 19 19 0 0 1 79 44 L 82 44  A 19 19 0 0 1 101 63 A 19 19 0 0 1 82 82 L 79 82  A 19 19 0 0 1 60 63 Z " fill-rule="nonzero" fill="#11e48a" stroke="none" fill-opacity="0.0980392156862745" />
    <path d="M 59 63  A 20 20 0 0 1 79 43 L 82 43  A 20 20 0 0 1 102 63 A 20 20 0 0 1 82 83 L 79 83  A 20 20 0 0 1 59 63 Z " stroke-width="2" stroke="#11e48a" fill="none" stroke-opacity="0.647058823529412" />
  </g>
</svg>