<svg t="1638440591444" class="icon" viewBox="0 0 1024 1024" version="1.1" xmlns="http://www.w3.org/2000/svg" p-id="2870" width="32" height="32"><path d="M829.42984 249.609914a48.358913 48.358913 0 0 1 4.583783 63.416641l-4.308756 4.961945-191.487543 192.81684a105.266581 105.266581 0 0 1-130.569065 15.034809l-7.574701-5.236972-72.836315-55.005399a8.560215 8.560215 0 0 0-8.445621-1.05427l-2.543999 1.569946L261.625156 610.674516a48.358913 48.358913 0 0 1-70.532964-65.846045l4.492107-4.801513 154.633927-144.561063a105.255122 105.255122 0 0 1 127.497929-12.45643l7.838269 5.385945 72.790478 55.085614a8.560215 8.560215 0 0 0 8.66335 0.974054l2.53254-1.764756 191.499003-192.874138a48.358913 48.358913 0 0 1 68.390045-0.20627zM796.426601 96.729285H227.556187A130.855551 130.855551 0 0 0 97.010042 218.61208l-0.297946 8.949837v398.216165a130.855551 130.855551 0 0 0 121.882795 130.546146l8.961296 0.297945h568.870414a130.855551 130.855551 0 0 0 130.546145-121.882795l0.297946-8.961296v-398.216165A130.855551 130.855551 0 0 0 805.387897 97.027231z m0-96.717826c125.675876 0 227.550457 101.886041 227.550457 227.550458v398.216165c0 125.675876-101.874582 227.550457-227.550457 227.550457H568.876144v65.422046a48.771453 48.771453 0 0 1-0.744865 8.537296h293.717368a48.358913 48.358913 0 1 1 0 96.706366h-699.714505a48.358913 48.358913 0 1 1 0-96.706366h293.717367a48.771453 48.771453 0 0 1-0.744864-8.537296v-65.422046H227.556187C101.880311 853.328539 0.00573 751.453958 0.00573 625.778082v-398.216165C0.00573 101.8975 101.880311 0 227.556187 0z" p-id="2871" fill="#30FFAF"></path></svg>