<svg t="1635587598548" class="icon" viewBox="0 0 1024 1024" version="1.1" xmlns="http://www.w3.org/2000/svg" p-id="4584" width="32" height="32"><path d="M0 0h1024v1024H0V0z" fill="#30FFAF" opacity=".01" p-id="4585"></path><path d="M499.746133 72.977067a34.133333 34.133333 0 0 1 24.507734 0l390.075733 150.016a17.066667 17.066667 0 0 1 0 31.880533l-390.075733 150.016a34.133333 34.133333 0 0 1-24.507734 0L109.6704 254.8736a17.066667 17.066667 0 0 1 0-31.880533l390.075733-150.016zM91.374933 324.8128A17.066667 17.066667 0 0 0 68.266667 340.753067v468.002133a34.133333 34.133333 0 0 0 21.947733 31.880533l364.475733 139.3664a17.066667 17.066667 0 0 0 23.176534-15.940266V494.967467a34.133333 34.133333 0 0 0-22.016-31.914667L91.374933 324.8128z" fill="#30FFAF" p-id="4586"></path><path d="M932.625067 324.8128a17.066667 17.066667 0 0 1 23.108266 15.940267v468.002133a34.133333 34.133333 0 0 1-21.947733 31.880533L569.344 980.002133a17.066667 17.066667 0 0 1-23.176533-15.940266V494.967467a34.133333 34.133333 0 0 1 22.016-31.914667l364.475733-138.24z" fill="#30FFAF" p-id="4587"></path></svg>