<svg t="1635587560890" class="icon" viewBox="0 0 1024 1024" version="1.1" xmlns="http://www.w3.org/2000/svg" p-id="4387" width="32" height="32"><path d="M0 0h1024v1024H0V0z" fill="#30FFAF" opacity=".01" p-id="4388"></path><path d="M716.8 307.2a34.133333 34.133333 0 0 0-34.133333 34.133333v512a34.133333 34.133333 0 0 0 34.133333 34.133334h204.8a34.133333 34.133333 0 0 0 34.133333-34.133334V341.333333a34.133333 34.133333 0 0 0-34.133333-34.133333h-204.8z m-341.333333 204.8a34.133333 34.133333 0 0 1 34.133333-34.133333h204.8a34.133333 34.133333 0 0 1 34.133333 34.133333v341.333333a34.133333 34.133333 0 0 1-34.133333 34.133334h-204.8a34.133333 34.133333 0 0 1-34.133333-34.133334V512z m-307.2 136.533333a34.133333 34.133333 0 0 1 34.133333-34.133333h204.8a34.133333 34.133333 0 0 1 34.133333 34.133333v204.8a34.133333 34.133333 0 0 1-34.133333 34.133334H102.4a34.133333 34.133333 0 0 1-34.133333-34.133334v-204.8z" fill="#30FFAF" p-id="4389"></path><path d="M906.410667 96.6656a34.133333 34.133333 0 0 0-37.888-56.797867l-329.147734 219.4432-66.696533-106.734933a34.133333 34.133333 0 0 0-46.523733-11.195733l-341.333334 204.8a34.133333 34.133333 0 0 0 35.157334 58.538666l312.558933-187.528533 67.584 108.100267a34.133333 34.133333 0 0 0 47.889067 10.308266l358.4-238.933333zM102.4 921.6a34.133333 34.133333 0 1 0 0 68.266667h819.2a34.133333 34.133333 0 0 0 0-68.266667H102.4z" fill="#30FFAF" p-id="4390"></path></svg>