<svg t="1688625938692" class="icon" viewBox="0 0 1024 1024" version="1.1" xmlns="http://www.w3.org/2000/svg" p-id="2335" width="200" height="200"><path d="M735.5 959h-447C165.3 959 65 858.7 65 735.5v-447C65 165.3 165.3 65 288.5 65h447C858.7 65 959 165.3 959 288.5v447C959 858.7 858.7 959 735.5 959z m-447-812.7c-78.4 0-142.2 63.8-142.2 142.2v447c0 78.4 63.8 142.2 142.2 142.2h447c78.4 0 142.2-63.8 142.2-142.2v-447c0-78.4-63.8-142.2-142.2-142.2h-447z" fill="#ffffff" p-id="2336"></path><path d="M767.2 764.7H269.5c-22.4 0-40.6-18.2-40.6-40.6 0-22.4 18.2-40.6 40.6-40.6h497.8c22.4 0 40.6 18.2 40.6 40.6 0 22.4-18.2 40.6-40.7 40.6zM583.4 439.8c-12.8 0-25.8-2.9-37.8-8.7l-108.2-52.7c-1.3-0.6-2.9-0.7-4.2-0.1L270 434.8c-21.3 7.3-44.4-3.9-51.7-25.1-7.3-21.2 3.9-44.3 25.1-51.7l161.3-55.8c20.7-8.5 46.3-7.6 68.2 3.1L581.2 358c1.7 0.9 3.7 0.6 5.3-0.5l121.9-90.2c18-13.4 43.5-9.6 56.8 8.5 13.3 18.1 9.5 43.5-8.5 56.8l-122 90.2c-15.1 11.2-33.1 17-51.3 17zM743.4 644.7c-5.5 0-11-1.1-16.3-3.5l-135.8-59.8c-6.7-3-14.1-3.7-21.3-2.1l-123.2 26.9c-19.8 4.3-40.5 3.3-59.9-2.8l-142.5-45.5c-21.4-6.8-33.2-29.7-26.4-51.1 6.8-21.4 29.8-33.1 51.1-26.4L411.6 526c5.7 1.8 11.9 2.1 17.8 0.8L552.7 500c24.1-5.3 48.8-2.8 71.4 7.2l135.8 59.7c20.5 9 29.9 33 20.8 53.6-6.8 15.2-21.7 24.2-37.3 24.2z" fill="#ffffff" p-id="2337"></path></svg>