<?xml version="1.0" encoding="utf-8"?>
<svg version="1.1" xmlns:xlink="http://www.w3.org/1999/xlink" width="80px" height="81px" xmlns="http://www.w3.org/2000/svg">
  <g transform="matrix(1 0 0 1 -392 -269 )">
    <path d="M 75.1177944789161 59.8972224088677  L 74.3630608934623 61.2207609609988  L 69.7878658984428 58.5461738175473  L 70.5425994838964 57.2226352654163  L 75.1177944789161 59.8972224088677  Z M 67.1409410125767 62.2661681974865  L 71.1878390098834 65.7046314586831  L 70.2175495534609 66.875341236476  L 66.1706515561544 63.4368779752788  L 67.1409410125767 62.2661681974865  Z M 74.2487109978941 47.2835253666318  L 74.5107529264475 45.7784295867933  L 79.7135531530493 46.7070406711044  L 79.4515112244957 48.2121364509429  L 74.2487109978941 47.2835253666318  Z M 76.9410942395375 54.7412518133181  L 71.9766416327492 52.9118745371498  L 72.4928680246134 51.475729318757  L 77.4573206314017 53.3051065949253  L 76.9410942395375 54.7412518133181  Z M 61.8748085621577 67.5981273035362  L 63.0310651328166 66.6157092289082  L 66.4270782302951 70.7131934511812  L 65.2708216596362 71.6956115258087  L 61.8748085621577 67.5981273035362  Z M 47.0771366304489 74.7947444136695  L 47.9942833803861 80.0625796431043  L 46.5077690299285 80.3278970957643  L 45.5906222799914 75.0600618663305  L 47.0771366304489 74.7947444136695  Z M 39.2452830188678 75.6509433962263  L 40.7547169811322 75.6509433962263  L 40.7547169811322 81  L 39.2452830188678 81  L 39.2452830188678 75.6509433962263  Z M 59.5351090178428 75.6746914382042  L 56.8935414687553 71.0423065057466  L 58.2007400387609 70.2781387504752  L 60.8423075878485 74.9105236829327  L 59.5351090178428 75.6746914382042  Z M 54.442792380263 78.2849333892299  L 53.0243773497521 78.8076126109923  L 51.2175849782275 73.7811043466189  L 52.6360000087385 73.2584251248565  L 54.442792380263 78.2849333892299  Z M 57.8233815481946 10.3397857778267  L 56.5161829781891 9.57561802255526  L 59.1577505272767 4.9432330900977  L 60.4649490972823 5.70740084536915  L 57.8233815481946 10.3397857778267  Z M 66.049719739729 9.90473107712069  L 62.6537066422503 14.0022152993937  L 61.4974500715917 13.0197972247662  L 64.89346316907 8.92231300249315  L 66.049719739729 9.90473107712069  Z M 46.1304105393624 0.290027432537619  L 47.61692488982 0.555344885198086  L 46.6997781398829 5.82318011463234  L 45.2132637894253 5.55786266197187  L 46.1304105393624 0.290027432537619  Z M 50.8400175020395 7.60081768982395  L 52.6472763592005 2.5744813483299  L 54.065642875319 3.09729551772299  L 52.2583840181578 8.12363185921704  L 50.8400175020395 7.60081768982395  Z M 69.8401910628947 13.7425832918264  L 70.8104805193171 14.9132930696183  L 66.763582522011 18.3517563308154  L 65.7932930655886 17.181046553023  L 69.8401910628947 13.7425832918264  Z M 79.336222685304 33.910611399374  L 74.133512805866 34.8397412631883  L 73.8713244845076 33.334671619494  L 79.0740343639453 32.4055417556798  L 79.336222685304 33.910611399374  Z M 80 39.7358490566038  L 80 41.2641509433962  L 74.7169811320753 41.2641509433962  L 74.7169811320753 39.7358490566038  L 80 39.7358490566038  Z M 69.4105074078766 22.0717507107546  L 73.9857024028964 19.3971635673036  L 74.7404359883498 20.7207021194346  L 70.1652409933302 23.3952892628851  L 69.4105074078766 22.0717507107546  Z M 72.8702265151793 29.1421952095449  L 72.3540001233153 27.7060499911521  L 77.3184527301037 25.8766727149838  L 77.8346791219677 27.3128179333761  L 72.8702265151793 29.1421952095449  Z M 4.88220552108409 21.1027775911322  L 5.63693910653779 19.7792390390017  L 10.2121341015576 22.4538261824527  L 9.45740051610385 23.7773647345837  L 4.88220552108409 21.1027775911322  Z M 12.8592052906164 18.7337316819734  L 8.81208901128389 15.2955318077285  L 9.78230414334593 14.1247588840641  L 13.8294204226784 17.5629587583091  L 12.8592052906164 18.7337316819734  Z M 6.50603400605866 33.7167470911917  L 6.24384568470011 35.2218167348864  L 1.04113580526228 34.2926868710722  L 1.30332412662076 32.787617227378  L 6.50603400605866 33.7167470911917  Z M 3.05890576046241 25.4945972432857  L 8.02335836725074 27.323974519454  L 7.5071319753866 28.7601197378467  L 2.54267936859833 26.9307424616779  L 3.05890576046241 25.4945972432857  Z M 18.1250925533584 12.6378698850507  L 16.9687736164063 13.6202127062639  L 13.5730206541886 9.52250747343994  L 14.7293395911408 8.54016465222724  L 18.1250925533584 12.6378698850507  Z M 33.6778494448296 6.20528395943657  L 32.7601903200749 0.937540206505398  L 34.2466788570572 0.672074531130115  L 35.1643379818118 5.9398182840608  L 33.6778494448296 6.20528395943657  Z M 39.2452830188678 5.34905660377371  L 39.2452830188678 0  L 40.7547169811322 0  L 40.7547169811322 5.34905660377371  L 39.2452830188678 5.34905660377371  Z M 20.4648909821572 4.56115761839958  L 23.1064585312448 9.19354255085714  L 21.7992599612391 9.95771030612858  L 19.1576924121515 5.32532537367102  L 20.4648909821572 4.56115761839958  Z M 25.557207619737 2.71506661077013  L 26.9756226502479 2.19238738900769  L 28.7824150217726 7.21889565338105  L 27.3639999912616 7.7415748751435  L 25.557207619737 2.71506661077013  Z M 22.1766184518054 70.6602142221733  L 23.4838170218107 71.4243819774452  L 20.8422494727231 76.0567669099023  L 19.5350509027175 75.2925991546309  L 22.1766184518054 70.6602142221733  Z M 13.950280260271 71.0952689228793  L 17.3462933577494 66.9977847006063  L 18.5025499284083 67.9802027752343  L 15.1065368309298 72.0776869975068  L 13.950280260271 71.0952689228793  Z M 33.8695894606377 80.7099725674624  L 32.38307511018 80.4446551148019  L 33.3002218601172 75.1768198853677  L 34.7867362105748 75.4421373380281  L 33.8695894606377 80.7099725674624  Z M 28.4050565312066 73.3990288749213  L 26.598264159682 78.4255371392942  L 25.1798491291709 77.9028579175317  L 26.9866415006955 72.8763496531584  L 28.4050565312066 73.3990288749213  Z M 10.1598089371053 67.2574167081736  L 9.18951948068285 66.0867069303817  L 13.2364174779892 62.6482436691846  L 14.2067069344117 63.818953446977  L 10.1598089371053 67.2574167081736  Z M 0.663805337516722 47.0891161428025  L 5.86660556411839 46.1605050584914  L 6.128647492672 47.6656008383299  L 0.92584726607021 48.5942119226405  L 0.663805337516722 47.0891161428025  Z M 0 41.2641509433962  L 0 39.7358490566038  L 5.28301886792459 39.7358490566038  L 5.28301886792459 41.2641509433962  L 0 41.2641509433962  Z M 10.5894925921235 58.9282492892459  L 6.01429759710365 61.6028364326964  L 5.2595640116502 60.2792978805654  L 9.83475900666983 57.6047107371149  L 10.5894925921235 58.9282492892459  Z M 7.12977348482061 51.8578047904552  L 7.64599987668475 53.2939500088479  L 2.68154726989642 55.1233272850162  L 2.16532087803234 53.6871820666239  L 7.12977348482061 51.8578047904552  Z " fill-rule="nonzero" fill="#ffffff" stroke="none" fill-opacity="0.2" transform="matrix(1 0 0 1 392 269 )" />
  </g>
</svg>