<?xml version="1.0" encoding="utf-8"?>
<svg version="1.1" xmlns:xlink="http://www.w3.org/1999/xlink" width="14px" height="14px" xmlns="http://www.w3.org/2000/svg">
  <g transform="matrix(1 0 0 1 -27 -8 )">
    <path d="M 13.6354166666667 12.1041666666667  C 13.6354166666667 12.9484366666667  12.9484366666667 13.6354166666667  12.1041666666667 13.6354166666667  L 1.89583333333333 13.6354166666667  C 1.051645 13.6354166666667  0.364583333333334 12.9484366666667  0.364583333333334 12.1041666666667  L 0.364583333333334 1.89583333333333  C 0.364583333333334 1.051645  1.051645 0.364583333333333  1.89583333333333 0.364583333333333  L 12.1041666666667 0.364583333333333  C 12.9484366666667 0.364583333333333  13.6354166666667 1.051645  13.6354166666667 1.89583333333333  L 13.6354166666667 12.1041666666667  Z M 12.1041666666667 1.38541666666667  L 1.89583333333333 1.38541666666667  C 1.61457333333333 1.38541666666667  1.38541666666667 1.61457333333333  1.38541666666667 1.89583333333333  L 1.38541666666667 12.1041666666667  C 1.38541666666667 12.3859166666667  1.61457333333333 12.6145833333333  1.89583333333333 12.6145833333333  L 12.1041666666667 12.6145833333333  C 12.3859166666667 12.6145833333333  12.6145833333333 12.3859166666667  12.6145833333333 12.1041666666667  L 12.6145833333333 1.89583333333333  C 12.6145833333333 1.61457333333333  12.3859166666667 1.38541666666667  12.1041666666667 1.38541666666667  Z " fill-rule="nonzero" fill="#ff943d" stroke="none" transform="matrix(1 0 0 1 27 8 )" />
  </g>
</svg>