<?xml version="1.0" encoding="utf-8"?>
<svg version="1.1" xmlns:xlink="http://www.w3.org/1999/xlink" width="13px" height="50px" xmlns="http://www.w3.org/2000/svg">
  <g transform="matrix(1 0 0 1 -510 -525 )">
    <path d="M 12.7766323024055 3.00601202404809  C 12.9255441008018 3.34001336005343  13 3.72411489645958  13 4.15831663326653  C 13 4.59251837007348  12.9255441008018 4.97661990647962  12.7766323024055 5.31062124248497  L 3.99828178694158 25  L 12.7766323024055 44.689378757515  C 12.9255441008018 45.0233800935204  13 45.4074816299265  13 45.8416833667335  C 13 46.2758851035404  12.9255441008018 46.6599866399466  12.7766323024055 46.9939879759519  L 11.659793814433 49.498997995992  C 11.5108820160367 49.8329993319973  11.3396334478809 50  11.1460481099656 50  C 10.9524627720504 50  10.7812142038946 49.8329993319973  10.6323024054983 49.498997995992  L 0.223367697594502 26.1523046092184  C 0.0744558991981673 25.8183032732131  0 25.4342017368069  0 25  C 0 24.5657982631931  0.0744558991981673 24.1816967267869  0.223367697594502 23.8476953907816  L 10.6323024054983 0.501002004008017  C 10.7812142038946 0.16700066800267  10.9524627720504 0  11.1460481099656 0  C 11.3396334478809 0  11.5108820160367 0.16700066800267  11.659793814433 0.501002004008017  L 12.7766323024055 3.00601202404809  Z " fill-rule="nonzero" fill="#47cfff" stroke="none" transform="matrix(1 0 0 1 510 525 )" />
  </g>
</svg>