<svg t="1688962137479" class="icon" viewBox="0 0 1024 1024" version="1.1" xmlns="http://www.w3.org/2000/svg" p-id="11736" width="32" height="32"><path d="M1015.480865 596.907377a35.212424 35.212424 0 0 1-22.14975 26.693289 34.644481 34.644481 0 0 1-46.003328-38.052136A436.1797 436.1797 0 0 0 953.575153 511.148087 442.427066 442.427066 0 1 0 511.148087 954.143095a33.508597 33.508597 0 0 1 23.853577 9.655019 34.076539 34.076539 0 0 1 10.222962 24.42152 31.80477 31.80477 0 0 1-10.222962 23.853577A34.076539 34.076539 0 0 1 511.148087 1022.296173a511.148087 511.148087 0 1 1 511.148086-511.148086 474.799778 474.799778 0 0 1-7.38325 85.191347z m-298.169717-12.494731a34.644481 34.644481 0 0 1 23.853577 9.655019 36.348308 36.348308 0 0 1 10.222962 24.42152 34.076539 34.076539 0 0 1-10.222962 23.853577 32.940654 32.940654 0 0 1-23.853577 10.222962h-170.382695v94.846367a35.212424 35.212424 0 0 1-10.222962 24.42152 34.076539 34.076539 0 0 1-23.853578 10.222961 35.212424 35.212424 0 0 1-24.421519-10.222961 34.644481 34.644481 0 0 1-9.65502-24.42152V653.133666h-170.382695a33.508597 33.508597 0 0 1-33.508597-34.076539 35.780366 35.780366 0 0 1 9.087077-24.42152 34.644481 34.644481 0 0 1 24.42152-9.655019h170.382695V511.148087h-170.382695a33.508597 33.508597 0 0 1-33.508597-34.07654A35.780366 35.780366 0 0 1 283.971159 454.353855a34.644481 34.644481 0 0 1 24.42152-9.65502h139.145868L325.998891 321.455352a33.508597 33.508597 0 0 1-9.65502-23.853577 34.644481 34.644481 0 0 1 9.65502-24.42152 34.076539 34.076539 0 0 1 48.843039 0L511.148087 410.054354l137.442041-137.442041a34.076539 34.076539 0 0 1 23.853577-10.222962 34.644481 34.644481 0 0 1 34.644481 34.644482 34.076539 34.076539 0 0 1-10.222961 23.853577l-121.539657 121.539656h141.98558a32.940654 32.940654 0 0 1 24.42152 10.222962 32.940654 32.940654 0 0 1 0 47.707154 32.940654 32.940654 0 0 1-24.42152 10.222962h-170.382695v73.264559z m9.655019 264.093178a34.076539 34.076539 0 0 1 24.42152 10.222961 33.508597 33.508597 0 0 1 9.65502 23.853578v105.069329a33.508597 33.508597 0 0 1-9.65502 23.853577 32.940654 32.940654 0 0 1-24.42152 10.222962 31.80477 31.80477 0 0 1-23.853577-10.222962 34.076539 34.076539 0 0 1-10.222962-23.853577v-104.501387a32.940654 32.940654 0 0 1 10.222962-24.42152 34.076539 34.076539 0 0 1 23.853577-10.222961z m130.626734-148.800888a34.076539 34.076539 0 0 1 23.853577 10.222962 35.212424 35.212424 0 0 1 10.222962 24.42152v253.302274a34.076539 34.076539 0 0 1-10.222962 24.421519 33.508597 33.508597 0 0 1-23.853577 9.65502 32.940654 32.940654 0 0 1-34.076539-34.076539v-253.302274a33.508597 33.508597 0 0 1 9.655019-23.853578 35.212424 35.212424 0 0 1 24.42152-10.222961z m130.058791 56.794232a34.076539 34.076539 0 0 1 24.421519 10.222962 33.508597 33.508597 0 0 1 9.65502 23.853577v198.779812a34.644481 34.644481 0 0 1-9.65502 24.421519 35.212424 35.212424 0 0 1-24.421519 10.222962 34.076539 34.076539 0 0 1-23.853578-10.222962 35.212424 35.212424 0 0 1-10.222961-24.421519v-198.779812a34.076539 34.076539 0 0 1 10.222961-24.42152 33.508597 33.508597 0 0 1 23.853578-9.655019z m0 0" fill="#FFFFFF" p-id="11737"></path></svg>