<?xml version="1.0" encoding="utf-8"?>
<svg version="1.1" xmlns:xlink="http://www.w3.org/1999/xlink" width="15px" height="15px" xmlns="http://www.w3.org/2000/svg">
  <g transform="matrix(1 0 0 1 -770 -1697 )">
    <path d="M 0.121753246753087 6.05112922965736  C 0.121753246753087 2.77290879286693  2.91887388926853 0.115665584415638  6.3696097154284 0.115665584415638  C 9.82036806994415 0.115665584415638  12.6174887124594 2.77293019480521  12.6174887124594 6.05112922965736  C 12.6174887124594 7.50761671190133  12.0647780339523 8.8421773538962  11.1482794677568 9.87539871017634  L 14.8628673957621 13.5184151785716  L 13.7738241533343 14.5858796355014  L 9.99818438140801 10.8835155932934  C 8.93991967031116 11.6027869423733  7.67082539954686 11.9885957924703  6.3696097154284 11.9866142768365  C 2.91887388926853 11.9866142768365  0.121753246753087 9.32934966644689  0.121753246753087 6.05112922965736  Z M 11.1756739482762 6.05112922965736  C 11.1756739482762 3.52946729783889  9.02399069628973 1.48538961038957  6.3696097154284 1.48538961038957  C 3.71525126292295 1.48538961038957  1.56356801093625 3.52948869977672  1.56356801093625 6.05112922965736  C 1.56356801093625 8.5727697595371  3.71525126292295 10.6168902508625  6.3696097154284 10.6168902508625  C 9.02396816793407 10.6168902508625  11.1756739482762 8.57279116147538  11.1756739482762 6.05112922965736  Z " fill-rule="nonzero" fill="#a7b6c4" stroke="none" transform="matrix(1 0 0 1 770 1697 )" />
  </g>
</svg>