<?xml version="1.0" encoding="utf-8"?>
<svg version="1.1" xmlns:xlink="http://www.w3.org/1999/xlink" width="13px" height="9px" xmlns="http://www.w3.org/2000/svg">
  <g transform="matrix(1 0 0 1 -8 -11 )">
    <path d="M 12.6900111607143 0.225446428571403  C 12.8490513392857 0.423363095238113  12.9285714285714 0.657738095238073  12.9285714285714 0.928571428571403  C 12.9285714285714 1.19940476190474  12.8490513392857 1.43377976190476  12.6900111607143 1.6316964285714  L 7.06501116071428 8.63169642857146  C 6.90597098214285 8.8296130952381  6.71763392857142 8.92857142857143  6.5 8.92857142857143  C 6.28236607142857 8.92857142857143  6.09402901785714 8.8296130952381  5.93498883928571 8.63169642857146  L 0.309988839285712 1.6316964285714  C 0.150948660714288 1.43377976190476  0.0714285714285694 1.19940476190474  0.0714285714285694 0.928571428571403  C 0.0714285714285694 0.657738095238073  0.150948660714288 0.423363095238113  0.309988839285712 0.225446428571403  C 0.469029017857139 0.0275297619047574  0.657366071428566 -0.0714285714285703  0.874999999999997 -0.0714285714285703  L 12.125 -0.0714285714285703  C 12.3426339285714 -0.0714285714285703  12.5309709821429 0.0275297619047574  12.6900111607143 0.225446428571403  Z " fill-rule="nonzero" fill="#cccccc" stroke="none" transform="matrix(1 0 0 1 8 11 )" />
  </g>
</svg>