<?xml version="1.0" encoding="utf-8"?>
<svg version="1.1" xmlns:xlink="http://www.w3.org/1999/xlink" width="336px" height="73px" xmlns="http://www.w3.org/2000/svg">
  <g transform="matrix(1 0 0 1 -1514 -539 )">
    <path d="M 5.36649244444445 69.0193966101695  C 6.63414577777778 68.0543118644068  7.90145066666667 66.5923693220339  9.16838222222223 64.6335813559322  C 10.2647875555556 62.9384966101695  11.4404764444445 60.7355916949153  12.6954488888889 58.0248542372881  C 13.2052604444445 56.9235811864407  13.7739217777778 55.6410949152542  14.4014577777778 54.1773830508475  C 14.7802666666667 53.2937118644068  15.3503466666667 51.941516779661  16.1116977777778 50.1208101694915  C 17.0203911111111 47.9477238983051  17.7095644444445 46.3178813559322  18.1792177777778 45.2312949152542  C 18.9671128888889 43.4084354237288  19.6962826666667 41.7931557627119  20.3667022222222 40.3854559322034  C 22.0675217777778 36.8143083050847  23.7381137777778 33.8606540677966  25.3784533333333 31.524493220339  C 27.4005137777778 28.6448288135593  29.5364782222222 26.4532574576271  31.7863466666667 24.9497915254237  C 34.3931217777778 23.2078506779661  37.2090133333333 22.336886440678  40.2340088888889 22.336886440678  C 42.4652106666667 22.336886440678  44.6592533333333 22.6662525423729  46.8161244444445 23.3249847457627  C 48.7324071111111 23.9102220338983  50.6798382222223 24.7764845762712  52.6584177777778 25.9237847457627  C 54.2932817777778 26.8717083050848  56.0749528888889 28.0897442372881  58.0034311111111 29.5778677966102  C 59.1526382222222 30.4645950847458  60.8661511111111 31.8642525423729  63.1439822222222 33.7768525423729  C 64.4442648888889 34.8685489830509  65.4250488888889 35.6849611864407  66.0863466666667 36.2260644067797  C 67.1865226666667 37.1262286440678  68.1921582222222 37.9214337288136  69.1032533333333 38.611679661017  C 71.3752728888889 40.3329083050847  73.5233582222222 41.7481184745763  75.5474844444445 42.8573101694915  C 77.9690862222222 44.1843388135593  80.4057955555556 45.1878661016949  82.8576 45.867879661017  C 85.6196817777778 46.6339218644068  88.4893706666667 47.0169491525424  91.4666666666667 47.0169491525424  C 94.0477315555556 47.0169491525424  96.544 46.4465222033898  98.9554844444445 45.3056559322034  C 101.147448888889 44.2686476271187  103.352853333333 42.7184493220339  105.571697777778 40.6550610169492  C 107.459358222222 38.899683220339  109.499824 36.6291728813559  111.69312 33.8435423728814  C 112.580819555556 32.7161254237288  113.571982222222 31.4059610169492  114.666595555556 29.9130491525424  C 115.327059555556 29.0123033898305  116.318881777778 27.6386289830509  117.642062222222 25.792013559322  C 119.120213333333 23.7289593220339  120.237189333333 22.1843288135593  120.992977777778 21.1581220338983  C 122.259162666667 19.4389472881356  123.420851555556 17.9185676271187  124.478044444444 16.5969830508475  C 127.148622222222 13.2568  129.705544888889 10.5023491525424  132.1488 8.33363050847459  C 135.127166222222 5.69053559322035  138.173566222222 3.68682169491527  141.288 2.32248881355934  C 144.823877333333 0.774158813559338  148.542700444444 0  152.444444444444 0  C 156.1952 0  159.704122666667 0.904457627118664  162.9712 2.71337288135595  C 165.846700444444 4.30542864406782  168.607699555556 6.64761508474579  171.254222222222 9.73993220338985  C 173.426188444444 12.2781050847458  175.676977777778 15.5206661016949  178.006577777778 19.4676152542373  C 178.931610666667 21.0356676271187  179.948744888889 22.8476018644068  181.057955555556 24.903393220339  C 181.72 26.1320203389831  182.705189333333 27.9951288135593  184.013511111111 30.4927186440678  C 185.332622222222 33.0114289830509  186.326522666667 34.8900777966102  186.9952 36.1286898305085  C 188.106078222222 38.1867083050848  189.124444444444 39.9989642372881  190.050311111111 41.5654576271187  C 192.350044444444 45.4545883050848  194.5664 48.6375120338983  196.699377777778 51.1142288135594  C 199.218967111111 54.0404152542373  201.828567111111 56.2436913559322  204.528177777778 57.7240694915254  C 207.520656 59.3649610169492  210.740444444444 60.185406779661  214.187555555555 60.185406779661  C 217.976478222222 60.185406779661  221.555500444444 59.8323713559322  224.924622222222 59.1262881355932  C 227.902167111111 58.5022  230.795911111111 57.5829815254237  233.605866666667 56.3686203389831  C 235.944588444444 55.3585849152542  238.379144888889 54.0714340677966  240.909511111111 52.5071677966102  C 241.923322666667 51.8808525423729  243.035432888889 51.1594269491526  244.245866666667 50.3429033898305  C 244.973456 49.8518608474576  246.049900444444 49.1114676271187  247.4752 48.1217237288136  C 249.959944888889 46.3957933898305  251.835733333333 45.132806779661  253.102577777778 44.3327762711864  C 255.2256 42.9920508474576  257.212977777778 41.8954052542373  259.064711111111 41.0428271186441  C 261.292266666667 40.0168677966102  263.526455111111 39.2432286440678  265.767288888889 38.7219220338983  C 268.270277333333 38.1396542372882  270.872 37.8485203389831  273.572444444444 37.8485203389831  C 276.120232888889 37.8485203389831  278.497121777778 38.2226762711864  280.703111111111 38.9709881355932  C 282.691733333333 39.6453101694915  284.608177777778 40.649282881356  286.452444444444 41.9829186440678  C 287.980622222222 43.0879777966102  289.581811555555 44.5162661016949  291.256 46.2677711864407  C 291.923022222222 46.9660966101695  292.663877333333 47.7793289830509  293.478577777778 48.7074559322034  C 293.965566222222 49.2625033898305  294.698544 50.1135967796611  295.677511111111 51.2607237288136  C 296.981688888889 52.7888611864407  297.976410666667 53.9369779661017  298.661688888889 54.705086440678  C 299.803255111111 55.9834525423729  300.875966222222 57.1181694915254  301.879822222222 58.1092372881356  C 304.398577777778 60.5960255932203  306.976656 62.6532150847458  309.614044444444 64.2808305084746  C 312.807288888889 66.2522388135593  316.312055111111 67.7493574576271  320.128355555555 68.772186440678  C 324.488055111111 69.9410154237288  329.363788444444 70.5254237288136  334.755555555555 70.5254237288136  C 334.836855111111 70.5254237288136  334.917744 70.5333423728814  334.998222222222 70.549179661017  C 335.078700444444 70.5650169491526  335.156677333333 70.5884883050848  335.232177777778 70.6195813559322  C 335.307678222222 70.6506744067797  335.379432888889 70.6887828813559  335.447466666667 70.733906779661  C 335.514666666667 70.7791049152543  335.577299555555 70.8304152542373  335.635377777778 70.8878254237288  C 335.693456 70.9452355932203  335.744888888889 71.0077186440678  335.789688888889 71.0752745762712  C 335.835322666667 71.1428305084746  335.873900444444 71.2141354237288  335.905422222222 71.2892016949153  C 335.936944 71.3642679661017  335.960588444444 71.4416355932203  335.976355555556 71.5213169491525  C 335.992122666667 71.6009983050848  336 71.6814591525424  336 71.7627118644068  C 336 71.8439645762712  335.992122666667 71.9244254237288  335.976355555556 72.004106779661  C 335.960588444444 72.0837881355932  335.936944 72.1611557627119  335.905422222222 72.2362220338983  C 335.873900444444 72.3112883050847  335.835322666667 72.382593220339  335.789688888889 72.4501491525424  C 335.744888888889 72.5177050847458  335.693456 72.5801881355932  335.635377777778 72.6375983050848  C 335.577299555555 72.6950084745763  335.514666666667 72.7463188135593  335.447466666667 72.7915169491525  C 335.379432888889 72.8366408474576  335.307678222222 72.8747493220339  335.232177777778 72.9058423728813  C 335.156677333333 72.9369354237288  335.078700444444 72.960406779661  334.998222222222 72.9762440677966  C 334.917744 72.9920813559322  334.836855111111 73  334.755555555555 73  C 329.143944888889 73  324.052088888889 72.3871711864407  319.48 71.161513559322  C 315.428088888889 70.0755086440678  311.701811555555 68.4827476271186  308.301155555556 66.3832305084746  C 305.503644444444 64.6567186440678  302.778721777778 62.4840406779661  300.1264 59.8651966101695  C 299.085210666667 58.8374184745763  297.976833777778 57.66489  296.801244444444 56.347586440678  C 296.103521777778 55.5658677966102  295.096355555556 54.4039676271186  293.779733333333 52.8618983050847  C 292.808232888889 51.7237540677966  292.082721777778 50.8811608474576  291.6032 50.3341186440678  C 290.811733333333 49.432469661017  290.094522666667 48.6452574576271  289.451555555556 47.972506779661  C 287.881900444444 46.3301305084746  286.393955555556 45.0007015254237  284.987733333333 43.9842322033898  C 283.346721777778 42.7972645762712  281.650967111111 41.9068625423729  279.900444444444 41.3130508474576  C 277.954967111111 40.6530813559322  275.845633777778 40.3230966101695  273.572444444444 40.3230966101695  C 271.063644444444 40.3230966101695  268.651077333333 40.5925408474576  266.334755555556 41.1314169491525  C 264.259022222222 41.6142933898305  262.184122666667 42.3332320338983  260.110044444444 43.2882576271186  C 258.358700444444 44.0949694915254  256.467555555556 45.1394015254237  254.436622222222 46.4215661016949  C 253.200478222222 47.2022083050847  251.354967111111 48.4451137288136  248.900088888889 50.1502576271186  C 247.465655111111 51.1468561016949  246.380088888889 51.893683220339  245.643377777778 52.3907389830508  C 244.404744888889 53.2257476271186  243.264833777778 53.9650644067796  242.223644444444 54.6087016949152  C 239.589566222222 56.2368120338983  237.048 57.5799625423729  234.598933333333 58.6381779661017  C 231.633832888889 59.9191794915254  228.579966222222 60.8890154237288  225.437333333333 61.5476610169491  C 221.898967111111 62.2892049152542  218.149032888889 62.6599830508475  214.187555555556 62.6599830508475  C 210.313189333333 62.6599830508475  206.692677333333 61.7369661016949  203.326044444444 59.8909322033898  C 200.363432888889 58.2660388135593  197.524444444444 55.8769220338983  194.809066666667 52.7235694915254  C 192.580677333333 50.1359050847458  190.279288888889 46.8345728813559  187.904888888889 42.8195728813559  C 186.962433777778 41.2252033898305  185.928300444444 39.3849847457627  184.802488888889 37.2989169491525  C 184.128833777778 36.0518913559322  183.129955555556 34.1641237288136  181.805866666667 31.6356016949152  C 180.503344 29.1476627118644  179.522721777778 27.2934627118644  178.864 26.0730016949153  C 177.769722666667 24.0447523728813  176.767944888889 22.2602983050847  175.858666666667 20.7196271186441  C 173.603733333333 16.89731  171.437155555556 13.7719696610169  169.358933333333 11.3435813559322  C 166.906544 8.47835610169491  164.373688888889 6.32229491525423  161.760355555556 4.87541016949152  C 158.869921777778 3.27485423728813  155.764622222222 2.47457627118644  152.444444444444 2.47457627118644  C 148.891966222222 2.47457627118644  145.507911111111 3.1787540677966  142.292266666667 4.5871220338983  C 139.4176 5.84618644067796  136.588977777778 7.7103713559322  133.8064 10.1796644067797  C 131.468499555556 12.2545966101695  129.008232888889 14.9070577966102  126.4256 18.1370355932203  C 125.389388444444 19.4329711864407  124.247909333333 20.9273306779661  123.001137777778 22.6201016949153  C 122.251733333333 23.6375608474576  121.141066666667 25.1734561016949  119.669137777778 27.2277627118644  C 118.340481777778 29.082123559322  117.343358222222 30.4631474576271  116.677742222222 31.3708220338983  C 115.566453333333 32.8864133898305  114.558204444444 34.219096440678  113.652995555556 35.3688711864407  C 111.380391111111 38.2552169491525  109.253349333333 40.6197116949152  107.271857777778 42.4623677966101  C 104.864940444444 44.7005354237288  102.449262222222 46.3931455932203  100.024835555556 47.5401983050847  C 97.2751111111111 48.8410830508475  94.422384 49.4915254237288  91.4666666666667 49.4915254237288  C 88.2623093333333 49.4915254237288  85.1696906666667 49.0781474576271  82.1888355555556 48.2513915254237  C 79.551024 47.5198201694915  76.9367822222222 46.4442084745763  74.3460977777778 45.0245440677966  C 72.2147004444444 43.8565440677966  69.9642471111111 42.3750152542373  67.5947377777778 40.5799576271186  C 66.6589155555555 39.8709915254237  65.6289262222222 39.0566084745763  64.5047822222222 38.1368084745763  C 63.8353582222222 37.5890238983051  62.8464728888889 36.765893220339  61.5381511111111 35.6674288135593  C 59.2865404444444 33.7768525423729  57.5996462222222 32.3986001694915  56.4774933333333 31.5326593220339  C 54.6356284444445 30.1115101694915  52.9446773333333 28.9544354237288  51.40464 28.0614474576271  C 49.5915715555556 27.0100866101695  47.8184373333333 26.2197440677966  46.0852622222222 25.6904322033898  C 44.1665777777778 25.1044525423729  42.21616 24.8114627118644  40.2340088888889 24.8114627118644  C 37.7148426666667 24.8114627118644  35.36176 25.5421679661017  33.1747733333333 27.0035661016949  C 31.182256 28.3350489830508  29.2637333333333 30.3142150847458  27.4192177777778 32.9410644067797  C 25.8584355555556 35.1638154237288  24.2574204444444 37.9982693220339  22.61616 41.4444508474576  C 21.9585955555556 42.825103559322  21.2418328888889 44.4130391525424  20.4658844444444 46.2082576271186  C 20.0001262222222 47.2858489830509  19.3147733333333 48.906696440678  18.4098133333333 51.0708  C 17.6456373333333 52.8981879661017  17.0726951111111 54.2571015254237  16.6909866666667 55.1475406779661  C 16.0542417777778 56.6329422033898  15.4759982222222 57.9369696610169  14.9562311111111 59.0595983050847  C 13.6526382222222 61.8755052542373  12.421136 64.1796574576271  11.2617244444444 65.9720796610169  C 9.83806755555556 68.1732152542373  8.37736355555555 69.8438883050847  6.87961244444444 70.9840864406779  C 5.11431822222222 72.3280288135593  3.23592888888889 73  1.24444444444444 73  C 1.16273422222223 73  1.081808 72.9920813559322  1.00166577777778 72.9762440677966  C 0.921523555555556 72.960406779661  0.843708444444446 72.9369354237288  0.768220444444444 72.9058423728813  C 0.692720000000002 72.8747493220339  0.621002666666669 72.8366408474576  0.553068444444445 72.7915169491525  C 0.485134222222222 72.7463188135593  0.42226488888889 72.6950084745763  0.364485333333333 72.6375983050848  C 0.306705777777781 72.5801881355932  0.255123555555557 72.5177050847458  0.209726222222223 72.4501491525424  C 0.164328888888888 72.382593220339  0.126 72.3112883050847  0.0947271111111105 72.2362220338983  C 0.0634542222222251 72.1611557627119  0.0398471111111102 72.0837881355932  0.0239057777777791 72.004106779661  C 0.00796444444444357 71.9244254237288  0 71.8439645762712  0 71.7627118644068  C 0 71.6814591525424  0.00796444444444357 71.6009983050847  0.0239057777777791 71.5213169491525  C 0.0398471111111102 71.4416355932203  0.0634542222222251 71.3642679661017  0.0947271111111105 71.2892016949153  C 0.126 71.2141354237288  0.164328888888888 71.1428305084746  0.209726222222223 71.0752745762712  C 0.255123555555557 71.0077186440678  0.306705777777781 70.9452355932203  0.364485333333333 70.8878254237288  C 0.42226488888889 70.8304152542373  0.485134222222222 70.7791049152543  0.553068444444445 70.733906779661  C 0.621002666666669 70.6887828813559  0.692720000000002 70.6506744067797  0.768220444444444 70.6195813559322  C 0.843708444444446 70.5884883050848  0.921523555555556 70.5650169491526  1.00166577777778 70.549179661017  C 1.081808 70.5333423728814  1.16273422222223 70.5254237288136  1.24444444444444 70.5254237288136  C 2.67362666666667 70.5254237288136  4.04764266666667 70.0234188135593  5.36649244444445 69.0193966101695  Z " fill-rule="nonzero" fill="#246cf9" stroke="none" transform="matrix(1 0 0 1 1514 539 )" />
  </g>
</svg>