<?xml version="1.0" encoding="utf-8"?>
<svg version="1.1" xmlns:xlink="http://www.w3.org/1999/xlink" width="338px" height="86px" xmlns="http://www.w3.org/2000/svg">
  <g transform="matrix(1 0 0 1 -1512 -528 )">
    <path d="M 328.775830882353 76.3223826086956  C 330.050786764706 78.2957336231884  331.326152720588 79.768651884058  332.601941176471 80.7411623188406  C 333.930740955882 81.7543794202899  335.315882352941 82.2609942028986  336.757352941176 82.2609942028986  C 336.838535073529 82.2609942028986  336.919307132353 82.2690084057971  336.999669117647 82.2850492753623  C 337.080031102941 82.3010028985507  337.157895367647 82.3246466666667  337.233286764706 82.355968115942  C 337.308678161765 82.3872147826087  337.380329191176 82.4256031884058  337.448264705882 82.4711333333333  C 337.515367647059 82.5165886956522  337.577910073529 82.5682260869565  337.635904411765 82.6260579710145  C 337.69389875 82.6839771014493  337.745257352941 82.7469565217391  337.789992647059 82.8150086956522  C 337.835560514706 82.8830608695652  337.874082573529 82.9548521739131  337.905558823529 83.0303826086957  C 337.937035073529 83.1060002898551  337.960645367647 83.1839362318841  337.976389705882 83.2642028985507  C 337.992134044118 83.3444695652174  338 83.4255214492754  338 83.5073710144928  C 338 83.5892205797101  337.992134044118 83.6702724637681  337.976389705882 83.7505391304348  C 337.960645367647 83.8308057971015  337.937035073529 83.9087417391304  337.905558823529 83.9843594202899  C 337.874082573529 84.0599771014493  337.835560514706 84.1318057971015  337.789992647059 84.1998579710145  C 337.745257352941 84.2679101449275  337.69389875 84.330852173913  337.635904411765 84.388684057971  C 337.577910073529 84.4466031884058  337.515367647059 84.4982779710145  337.448264705882 84.5437333333333  C 337.380329191176 84.5891886956522  337.308678161765 84.6275771014493  337.233286764706 84.6588985507246  C 337.157895367647 84.69022  337.080031102941 84.7138637681159  336.999669117647 84.7298173913043  C 336.919307132353 84.7457710144927  336.838535073529 84.753747826087  336.757352941176 84.753747826087  C 334.75752375 84.753747826087  332.870763014706 84.0777504347826  331.097095588235 82.725768115942  C 329.591007352941 81.5775185507246  328.121788455882 79.8948724637681  326.689426470588 77.6778173913043  C 325.522990955882 75.8721539130435  324.284071838235 73.5509391304348  322.972669117647 70.7141855072464  C 322.449924779412 69.5833104347826  321.868365955882 68.269704057971  321.227992647059 66.7733913043478  C 320.843604632353 65.8760872463768  320.267016397059 64.5071417391304  319.498227941176 62.6665797101449  C 318.588610294118 60.486915942029  317.89935125 58.8541623188406  317.430463235294 57.7683188405797  C 316.650080882353 55.959988115942  315.928935514706 54.3604379710145  315.267014705882 52.9696434782609  C 313.615946838235 49.4983968115942  312.00547625 46.6432466666667  310.435602941176 44.404168115942  C 308.579920808823 41.7576988405797  306.649257352941 39.7636205797101  304.643625 38.4219333333333  C 302.441654411765 36.9481301449275  300.071516397059 36.2112347826087  297.533198529412 36.2112347826087  C 293.663595588235 36.2112347826087  289.795235294118 36.6303913043478  285.928117647059 37.4687043478261  C 284.358244338235 37.8089652173913  282.638420808823 38.2487742028986  280.768647058823 38.7881188405797  C 279.635352941176 39.1150808695652  277.934169117647 39.6346579710145  275.665095588235 40.3468376811594  C 273.01908992647 41.1772611594203  270.993152720588 41.7915130434783  269.587308823529 42.1896057971014  C 267.222961544118 42.8591594202898  264.980816176471 43.4110924637681  262.860860294118 43.8454173913043  C 257.500080882353 44.9436373913043  251.877513014706 45.4927536231884  245.993169117647 45.4927536231884  C 243.038154411765 45.4927536231884  240.184204191176 44.9008492753623  237.431330882353 43.7170405797101  C 234.996575220588 42.6695855072464  232.568442867647 41.1225452173913  230.146933823529 39.0759072463768  C 228.152075220588 37.3888988405797  226.010161764706 35.2241417391304  223.721205882353 32.5816608695652  C 222.809935514706 31.5293075362319  221.794692867647 30.3096405797101  220.675477941176 28.9226724637681  C 220.00610125 28.0919249275362  219.002875 26.8285973913043  217.665786764706 25.1326898550725  C 216.185384044118 23.2544872463768  215.068244338235 21.8501944927536  214.314367647059 20.9198115942029  C 213.061779411765 19.3729707246377  211.914406102941 18.0072408695652  210.872235294118 16.8225971014493  C 208.275935514706 13.8713637681159  205.803067867647 11.4477466666667  203.453632352941 9.5517208695652  C 200.653538455882 7.2925008695652  197.805391397059 5.58621101449274  194.909191176471 4.43285130434782  C 191.660079191176 3.13944869565216  188.239904411765 2.4927536231884  184.648654411765 2.4927536231884  C 181.217295808824 2.4927536231884  178.012086544118 2.95194376811593  175.033051470588 3.870324057971  C 172.382895367647 4.68754840579709  169.823875 5.89902666666666  167.355977941176 7.5047588405797  C 165.279924779412 8.85541999999999  163.11647625 10.5932307246377  160.865632352941 12.7182034782609  C 159.956014705882 13.5762591304348  158.953608602941 14.5706434782609  157.858426470588 15.7013565217391  C 157.198170808823 16.3827133333333  156.213571838235 17.4195742028985  154.904654411765 18.8119391304348  C 153.570884044118 20.2304779710145  152.564339926471 21.2900727536232  151.885022058823 21.9906985507246  C 150.745924779412 23.1654460869565  149.699615955882 24.2018582608696  148.746095588235 25.0999101449275  C 146.340330882353 27.3658231884058  144.009125 29.228495942029  141.752477941176 30.687915942029  C 139.021972279412 32.4537826086956  136.177553161765 33.7884901449275  133.219220588235 34.6920260869565  C 129.903005661765 35.704831884058  126.341541911765 36.2112347826087  122.534816911765 36.2112347826087  C 118.574090661765 36.2112347826087  114.825770073529 35.9429771014493  111.289855147059 35.4064492753623  C 108.149101985294 34.9298347826087  105.096005147059 34.2277507246377  102.130552205882 33.3001971014493  C 99.6759141911764 32.5323417391304  97.1273693382353 31.5572263768116  94.4849176470588 30.3748260869565  C 93.4386958088235 29.9065997101449  92.2935468382353 29.3687507246377  91.0494955882352 28.7612666666666  C 90.3087909558823 28.399568115942  89.2168024264706 27.8558113043478  87.7735051470588 27.1300086956522  C 85.3022902205882 25.8872837681159  83.4442470588235 24.9813423188406  82.1993632352941 24.4121594202898  C 80.1503997794117 23.4753826086956  78.2407494852941 22.7118895652174  76.4703875 22.1216927536232  C 74.3672446323529 21.4204811594203  72.2617904411764 20.8923913043478  70.1540125 20.5374231884058  C 67.7982022058823 20.1405768115942  65.344844117647 19.9421536231884  62.7939382352941 19.9421536231884  C 60.6194674264706 19.9421536231884  58.5924615441176 20.570664057971  56.7129205882353 21.8276724637681  C 54.9612852941176 22.9991046376811  53.2533041911765 24.771115942029  51.5889897058823 27.1437188405797  C 50.1515825735294 29.1929243478261  48.6315766911765 31.8703910144927  47.0289720588235 35.1761188405797  C 46.3755882352941 36.5238634782608  45.6479811029412 38.0987104347826  44.8461382352941 39.9006347826087  C 44.3615058823529 40.9895568115942  43.6294252205882 42.6653104347826  42.6498838235294 44.9278956521739  C 41.3283659558823 47.9805217391304  40.3186406617647 50.2776814492753  39.6206830882353 51.8193623188405  C 38.446381617647 54.4131597101449  37.3404257352941 56.7197794202898  36.3028154411765 58.7392463768116  C 33.6604507352941 63.8820463768116  30.9445213235294 68.1507997101449  28.1550272058823 71.5455188405797  C 24.7317830882353 75.711495942029  20.9679294117647 78.8790753623188  16.8634661764706 81.0482695652174  C 12.1889386029412 83.5186756521739  6.98199889705882 84.7538350724637  1.24264705882357 84.7537478260869  C 1.16105485294118 84.7537478260869  1.08024551470588 84.7457710144927  1.00021904411765 84.7298173913043  C 0.920192573529412 84.7138637681159  0.842489852941178 84.69022  0.767110882352945 84.6588985507246  C 0.691731911764707 84.6275771014492  0.620118161764707 84.5891886956521  0.552269632352942 84.5437333333333  C 0.484421102941181 84.4982779710145  0.421655000000001 84.4466031884058  0.363958897058828 84.388684057971  C 0.30626279411765 84.330852173913  0.254755073529414 84.2679101449275  0.20942330882353 84.1998579710145  C 0.164091544117651 84.1318057971014  0.125818014705883 84.0599771014493  0.0945902941176508 83.9843594202898  C 0.0633625735294146 83.9087417391304  0.0397895588235329 83.8308057971014  0.0238712500000013 83.7505391304348  C 0.00795294117647412 83.6702724637681  0 83.5892205797101  0 83.5073710144927  C 0 83.4255214492754  0.00795294117647412 83.3444695652174  0.0238712500000013 83.2642028985507  C 0.0397895588235329 83.1840234782609  0.0633625735294146 83.1061249275362  0.0945902941176508 83.0305072463768  C 0.125818014705883 82.9548895652174  0.164091544117651 82.8830608695652  0.20942330882353 82.8150086956522  C 0.254755073529414 82.7469565217391  0.30626279411765 82.6839771014493  0.363958897058828 82.6260579710145  C 0.421655000000001 82.5682260869565  0.484421102941181 82.5165886956522  0.552269632352942 82.4711333333333  C 0.620105735294119 82.4256031884058  0.691719485294119 82.3871649275362  0.767110882352945 82.3558434782609  C 0.842489852941178 82.3245968115942  0.920192573529412 82.3009655072464  1.00021904411765 82.2849246376811  C 1.08024551470588 82.2689710144927  1.16105485294118 82.2609942028985  1.24264705882357 82.2609942028985  C 6.57213661764706 82.2610814492753  11.392861617647 81.1217185507246  15.7048220588235 78.8429304347826  C 19.5148649264706 76.8293713043478  23.0256286764706 73.8684286956522  26.2371257352941 69.9601275362319  C 28.9137005147059 66.7027591304348  31.5325419117647 62.5818634782609  34.0936375 57.5974405797101  C 35.1124465441176 55.6144550724637  36.2004586029412 53.3448901449275  37.3576985294117 50.7887333333333  C 38.0499399264706 49.2597655072464  39.0541230147059 46.9751942028986  40.3702477941176 43.935031884058  C 41.3530946323529 41.6647939130435  42.0885801470588 39.9813127536232  42.5766919117647 38.8845884057971  C 43.3897931617647 37.0573127536232  44.1288823529412 35.4578  44.7939470588235 34.0860376811594  C 46.454869117647 30.6600843478261  48.0423507352941 27.8678637681159  49.5563919117647 25.7093884057971  C 51.3988274264706 23.0826866666667  53.3247563970588 21.0974202898551  55.3342036764706 19.7535768115942  C 57.6311994852941 18.2174547826087  60.1177735294118 17.4494  62.7939382352941 17.4494  C 65.4830264705882 17.4494  68.0735727941176 17.6592898550725  70.5655772058823 18.0790695652174  C 72.7999436029412 18.455388115942  75.0295009558823 19.0144379710145  77.2542492647058 19.7561942028985  C 79.1086141911765 20.3743971014493  81.1005774264706 21.1703333333333  83.2301389705882 22.1440028985507  C 84.5030196323529 22.7258988405797  86.38878625 23.6451391304348  88.8874139705882 24.9017362318841  C 90.3217641911764 25.6229771014493  91.4050541911764 26.1624089855072  92.1373088235294 26.520031884058  C 93.3565071323529 27.1153886956522  94.4765919117647 27.6414843478261  95.4975507352941 28.0983188405797  C 98.0511034558823 29.2409971014493  100.50873625 30.1816750724638  102.870424264706 30.9203652173913  C 105.715340441176 31.8102782608696  108.645750735294 32.4840695652174  111.661655147059 32.9417391304348  C 115.074299485294 33.4595713043478  118.698678455882 33.7184811594203  122.534816911765 33.7184811594203  C 126.094665220588 33.7184811594203  129.414645367647 33.2480985507246  132.494757352941 32.3073333333333  C 135.232718897059 31.4712637681159  137.869615955882 30.2331130434783  140.405448529412 28.5928811594203  C 142.536178161765 27.2152982608696  144.749332573529 25.4452437681159  147.044911764706 23.2826927536232  C 147.971093897059 22.4106402898551  148.990486985294 21.4007884057971  150.103066176471 20.2531246376812  C 150.773263014706 19.5615475362319  151.771108602941 18.5110263768116  153.096602941176 17.1015362318841  C 154.413808823529 15.7004466666667  155.407093897059 14.6546866666667  156.076470588235 13.9642811594203  C 157.197338235294 12.8070202898551  158.225839926471 11.7865368115942  159.161963235294 10.9028431884058  C 161.522160073529 8.67533101449276  163.802417426471 6.84556260869565  166.002735294118 5.41353797101449  C 168.664485294118 3.68161014492753  171.431027720588 2.37296434782609  174.302375 1.48761304347826  C 177.519178161765 0.495871014492756  180.967933823529 0  184.648654411765 0  C 188.557189485294 0  192.283067867647 0.705324637681158  195.826264705882 2.11597391304348  C 198.95525 3.36186463768116  202.017132352941 5.19302898550725  205.011911764706 7.60946695652174  C 207.471520367647 9.59444666666666  210.046285073529 12.1157547826087  212.736205882353 15.1733913043478  C 213.799911764706 16.383211884058  214.969242647059 17.7746669565217  216.244198529412 19.3477565217391  C 217.004698529412 20.2872753623188  218.128461544118 21.7002927536232  219.6155 23.5868086956522  C 220.946785073529 25.2753127536232  221.944220588235 26.5313739130435  222.607794117647 27.3549797101449  C 223.708779411765 28.7193510144928  224.705382352941 29.9166579710145  225.597602941176 30.9469130434783  C 227.80122625 33.4918524637681  229.851593897059 35.5661475362319  231.748705882353 37.1698231884058  C 233.981332573529 39.0572489855072  236.202352941176 40.4759997101449  238.411779411765 41.4260753623188  C 240.851505661765 42.4753626086956  243.378639705882 43  245.993169117647 43  C 251.710178161765 43  257.167051470588 42.4677098550725  262.363801470588 41.4031420289855  C 264.424110294118 40.9810315942029  266.607031102941 40.4435565217391  268.912551470588 39.7907043478261  C 270.295207573529 39.3989307246377  272.298354632353 38.7913220289855  274.921992647059 37.9678782608696  C 277.210115955882 37.2498779710145  278.929939485294 36.7247420289855  280.081463235294 36.3924579710145  C 282.004248308823 35.8377330434783  283.777928161765 35.3843011594203  285.402477941176 35.0321623188406  C 289.442733602941 34.1563707246377  293.486307132353 33.7184811594203  297.533198529412 33.7184811594203  C 300.573545808823 33.7184811594203  303.403463235294 34.5950579710145  306.022963235294 36.3482115942029  C 308.286233602941 37.8623101449275  310.434770367647 40.0696060869565  312.468573529412 42.9700869565217  C 314.118808823529 45.3234956521739  315.799277720588 48.2989336231884  317.509992647059 51.8963884057971  C 318.184339926471 53.3146031884058  318.917911764706 54.9417855072464  319.710720588235 56.7779478260869  C 320.183759044118 57.8727652173913  320.877156102941 59.5146173913043  321.790911764706 61.7035043478261  C 322.556382352941 63.5372611594203  323.130075220588 64.8993391304348  323.511977941176 65.7897507246377  C 324.143242647059 67.2642144927536  324.715270367647 68.5561214492753  325.228073529412 69.665484057971  C 326.490602941176 72.3959591304348  327.673192867647 74.6149336231884  328.775830882353 76.3223826086956  Z " fill-rule="nonzero" fill="#1cfdca" stroke="none" transform="matrix(1 0 0 1 1512 528 )" />
  </g>
</svg>