<?xml version="1.0" encoding="utf-8"?>
<svg version="1.1" xmlns:xlink="http://www.w3.org/1999/xlink" width="75px" height="95px" xmlns="http://www.w3.org/2000/svg">
  <defs>
    <filter x="974px" y="97px" width="75px" height="95px" filterUnits="userSpaceOnUse" id="filter76">
      <feOffset dx="0" dy="0" in="SourceAlpha" result="shadowOffsetInner" />
      <feGaussianBlur stdDeviation="10" in="shadowOffsetInner" result="shadowGaussian" />
      <feComposite in2="shadowGaussian" operator="atop" in="SourceAlpha" result="shadowComposite" />
      <feColorMatrix type="matrix" values="0 0 0 0 0  0 0 0 0 0  0 0 0 0 0  0 0 0 1 0  " in="shadowComposite" />
    </filter>
    <g id="widget77">
      <path d="M 995 122  A 4 4 0 0 1 999 118 L 1024 118  A 4 4 0 0 1 1028 122 L 1028 167  A 4 4 0 0 1 1024 171 L 999 171  A 4 4 0 0 1 995 167 L 995 122  Z " fill-rule="nonzero" fill="#00d5ff" stroke="none" fill-opacity="0.0980392156862745" />
      <path d="M 994.5 122  A 4.5 4.5 0 0 1 999 117.5 L 1024 117.5  A 4.5 4.5 0 0 1 1028.5 122 L 1028.5 167  A 4.5 4.5 0 0 1 1024 171.5 L 999 171.5  A 4.5 4.5 0 0 1 994.5 167 L 994.5 122  Z " stroke-width="1" stroke="#00d5ff" fill="none" stroke-opacity="0.498039215686275" />
    </g>
  </defs>
  <g transform="matrix(1 0 0 1 -974 -97 )">
    <use xlink:href="#widget77" filter="url(#filter76)" />
    <use xlink:href="#widget77" />
  </g>
</svg>