<?xml version="1.0" encoding="utf-8"?>
<svg version="1.1" xmlns:xlink="http://www.w3.org/1999/xlink" width="23px" height="23px" xmlns="http://www.w3.org/2000/svg">
  <g transform="matrix(1 0 0 1 -1138 -715 )">
    <path d="M 22.4309895833334 9.927734375  C 22.73046875 9.62825520833338  22.8053385416666 9.17903645833338  22.6555989583334 8.72981770833338  C 22.505859375 8.35546875  22.2063802083334 8.05598958333338  21.83203125 7.98111979166662  L 15.318359375 7.0078125  L 12.3984375 0.868489583333377  C 12.2486979166666 0.494140625  11.8743489583334 0.26953125  11.5 0.26953125  C 11.1256510416666 0.26953125  10.7513020833334 0.494140625  10.5266927083334 0.868489583333377  L 7.681640625 7.0078125  L 1.16796875 7.98111979166662  C 0.793619791666623 8.05598958333338  0.419270833333377 8.35546875  0.344401041666623 8.72981770833338  C 0.26953125 9.10416666666662  0.344401041666623 9.55338541666662  0.643880208333377 9.85286458333338  L 5.36067708333338 14.64453125  L 4.23763020833338 21.3828125  C 4.16276041666662 21.7571614583334  4.3125 22.2063802083334  4.68684895833338 22.4309895833334  C 4.986328125 22.6555989583334  5.435546875 22.73046875  5.80989583333338 22.505859375  L 11.6497395833334 19.2864583333334  L 17.4895833333334 22.505859375  C 17.4895833333334 22.73046875  17.6393229166666 22.73046875  17.7890625 22.73046875  C 18.013671875 22.73046875  18.23828125 22.6555989583334  18.3880208333334 22.505859375  C 18.6875 22.28125  18.8372395833334 21.83203125  18.8372395833334 21.4576822916666  L 17.7141927083334 14.7194010416666  L 22.4309895833334 9.927734375  Z " fill-rule="nonzero" fill="#ffa300" stroke="none" transform="matrix(1 0 0 1 1138 715 )" />
  </g>
</svg>