<?xml version="1.0" encoding="utf-8"?>
<svg version="1.1" xmlns:xlink="http://www.w3.org/1999/xlink" width="307px" height="350px" xmlns="http://www.w3.org/2000/svg">
  <g>
    <path d="M 1 3  A 2 2 0 0 1 3 1 L 304 1  A 2 2 0 0 1 306 3 L 306 347  A 2 2 0 0 1 304 349 L 3 349  A 2 2 0 0 1 1 347 L 1 3  Z " fill-rule="nonzero" fill="#0e335e" stroke="none" />
    <path d="M 0.5 3  A 2.5 2.5 0 0 1 3 0.5 L 304 0.5  A 2.5 2.5 0 0 1 306.5 3 L 306.5 347  A 2.5 2.5 0 0 1 304 349.5 L 3 349.5  A 2.5 2.5 0 0 1 0.5 347 L 0.5 3  Z " stroke-width="1" stroke="#2391ff" fill="none" stroke-opacity="0.498039215686275" />
  </g>
</svg>