<?xml version="1.0" encoding="utf-8"?>
<svg version="1.1" xmlns:xlink="http://www.w3.org/1999/xlink" width="179px" height="46px" xmlns="http://www.w3.org/2000/svg">
  <g>
    <path d="M 1 3  A 2 2 0 0 1 3 1 L 176 1  A 2 2 0 0 1 178 3 L 178 43  A 2 2 0 0 1 176 45 L 3 45  A 2 2 0 0 1 1 43 L 1 3  Z " fill-rule="nonzero" fill="#ffffff" stroke="none" fill-opacity="0" />
    <path d="M 0.5 3  A 2.5 2.5 0 0 1 3 0.5 L 176 0.5  A 2.5 2.5 0 0 1 178.5 3 L 178.5 43  A 2.5 2.5 0 0 1 176 45.5 L 3 45.5  A 2.5 2.5 0 0 1 0.5 43 L 0.5 3  Z " stroke-width="1" stroke="#2391ff" fill="none" stroke-opacity="0.2" />
  </g>
</svg>