<?xml version="1.0" encoding="utf-8"?>
<svg version="1.1" xmlns:xlink="http://www.w3.org/1999/xlink" width="189px" height="56px" xmlns="http://www.w3.org/2000/svg">
  <defs>
    <filter x="-5px" y="-5px" width="189px" height="56px" filterUnits="userSpaceOnUse" id="filter90">
      <feOffset dx="0" dy="0" in="SourceAlpha" result="shadowOffsetInner" />
      <feGaussianBlur stdDeviation="2.5" in="shadowOffsetInner" result="shadowGaussian" />
      <feComposite in2="shadowGaussian" operator="atop" in="SourceAlpha" result="shadowComposite" />
      <feColorMatrix type="matrix" values="0 0 0 0 0.137254901960784  0 0 0 0 0.568627450980392  0 0 0 0 1  0 0 0 1 0  " in="shadowComposite" />
    </filter>
    <g id="widget91">
      <path d="M 0.5 3  A 2.5 2.5 0 0 1 3 0.5 L 176 0.5  A 2.5 2.5 0 0 1 178.5 3 L 178.5 43  A 2.5 2.5 0 0 1 176 45.5 L 3 45.5  A 2.5 2.5 0 0 1 0.5 43 L 0.5 3  Z " fill-rule="nonzero" fill="#ffffff" stroke="none" fill-opacity="0" />
      <path d="M 0.5 3  A 2.5 2.5 0 0 1 3 0.5 L 176 0.5  A 2.5 2.5 0 0 1 178.5 3 L 178.5 43  A 2.5 2.5 0 0 1 176 45.5 L 3 45.5  A 2.5 2.5 0 0 1 0.5 43 L 0.5 3  Z " stroke-width="1" stroke="#2391ff" fill="none" />
    </g>
  </defs>
  <g transform="matrix(1 0 0 1 5 5 )">
    <use xlink:href="#widget91" filter="url(#filter90)" />
    <use xlink:href="#widget91" />
  </g>
</svg>